<svg width="296" height="296" viewBox="0 0 296 296" xmlns="http://www.w3.org/2000/svg"><path d="M148 296a148 148 0 1 1 0-296 148 148 0 0 1 0 296zm79.5-192.1L152 66.8c-2.1-1-4.6-1-6.7 0l-75.8 37a6 6 0 0 0-3.5 5.3v64.3c0 7.3 4 14.1 10.8 18.3L134 227a28.2 28.2 0 0 0 29 0l57.2-35.1c6.7-4.2 10.8-11 10.8-18.3v-64.5a6 6 0 0 0-3.5-5.2zM141 141l-54-31.1L141 83v58zm14-58l54 26.9-54 31.1V83zm-71.1 98.8c-3.1-2-5-5-4.9-8.4V119l62 35.7V217l-57.1-35.2zm128.2 0L155 217v-62.3l62-35.7v54.4c0 3.3-1.8 6.4-4.9 8.4z" fill="#402EDF" fill-rule="evenodd"/></svg>
